HIERARCHY
ROOT root
{
	OFFSET 0.000000 0.000000 0.000000
	CHANNELS 6 Xposition Yposition Zposition Zrotation Yrotation Xrotation
	JOINT lhip
	{
		OFFSET 0.058581 -0.082280 -0.017664
		CHANNELS 3 Zrotation Yrotation Xrotation
		JOINT lknee
		{
			OFFSET 0.043451 -0.386469 0.008037
			CHANNELS 3 Zrotation Yrotation Xrotation
			JOINT lankle
			{
				OFFSET -0.014790 -0.426874 -0.037428
				CHANNELS 3 Zrotation Yrotation Xrotation
				JOINT ltoe
				{
					OFFSET 0.041054 -0.060286 0.122042
					CHANNELS 3 Zrotation Yrotation Xrotation
					End Site
					{
						OFFSET 0.000000 0.000000 0.000000
					}
				}
			}
		}
	}
	JOINT rhip
	{
		OFFSET -0.060310 -0.090513 -0.013543
		CHANNELS 3 Zrotation Yrotation Xrotation
		JOINT rknee
		{
			OFFSET -0.043257 -0.383688 -0.004843
			CHANNELS 3 Zrotation Yrotation Xrotation
			JOINT rankle
			{
				OFFSET 0.019056 -0.420046 -0.034562
				CHANNELS 3 Zrotation Yrotation Xrotation
				JOINT rtoe
				{
					OFFSET -0.034840 -0.062106 0.130323
					CHANNELS 3 Zrotation Yrotation Xrotation
					End Site
					{
						OFFSET 0.000000 0.000000 0.000000
					}
				}
			}
		}
	}
	JOINT lowerback
	{
		OFFSET 0.004439 0.124404 -0.038385
		CHANNELS 3 Zrotation Yrotation Xrotation
		JOINT upperback
		{
			OFFSET 0.004488 0.137956 0.026820
			CHANNELS 3 Zrotation Yrotation Xrotation
			JOINT chest
			{
				OFFSET -0.002265 0.056032 0.002855
				CHANNELS 3 Zrotation Yrotation Xrotation
				JOINT lowerneck
				{
					OFFSET -0.013390 0.211636 -0.033468
					CHANNELS 3 Zrotation Yrotation Xrotation
					JOINT upperneck
					{
						OFFSET 0.010113 0.088937 0.050410
						CHANNELS 3 Zrotation Yrotation Xrotation
						End Site
						{
							OFFSET 0.000000 0.000000 0.000000
						}
					}
				}
				JOINT lclavicle
				{
					OFFSET 0.071702 0.114000 -0.018898
					CHANNELS 3 Zrotation Yrotation Xrotation
					JOINT lshoulder
					{
						OFFSET 0.122921 0.045205 -0.019046
						CHANNELS 3 Zrotation Yrotation Xrotation
						JOINT lelbow
						{
							OFFSET 0.255332 -0.015649 -0.022946
							CHANNELS 3 Zrotation Yrotation Xrotation
							JOINT lwrist
							{
								OFFSET 0.265709 0.012698 -0.007375
								CHANNELS 3 Zrotation Yrotation Xrotation
								End Site
								{
									OFFSET 0.000000 0.000000 0.000000
								}
							}
						}
					}
				}
				JOINT rclavicle
				{
					OFFSET -0.082954 0.112472 -0.023707
					CHANNELS 3 Zrotation Yrotation Xrotation
					JOINT rshoulder
					{
						OFFSET -0.113228 0.046853 -0.008472
						CHANNELS 3 Zrotation Yrotation Xrotation
						JOINT relbow
						{
							OFFSET -0.260127 -0.014369 -0.031269
							CHANNELS 3 Zrotation Yrotation Xrotation
							JOINT rwrist
							{
								OFFSET -0.269108 0.006794 -0.006027
								CHANNELS 3 Zrotation Yrotation Xrotation
								End Site
								{
									OFFSET 0.000000 0.000000 0.000000
								}
							}
						}
					}
				}
			}
		}
	}
}
MOTION
Frames: 13
Frame Time: 0.033333
-2.437651 0.275675 0.958851 78.186596 -2.467647 110.215576 11.619749 -0.794050 -61.015493 -9.981701 19.610542 42.148470 -5.168000 -1.383083 -13.650366 0.000000 -0.000000 0.000000 -8.428566 -2.599032 5.300338 -5.017275 7.289833 37.484217 13.679322 -4.592214 21.697687 0.000000 -0.000000 0.000000 -3.445019 14.392327 24.724431 -0.554447 -0.979367 -3.567082 1.429244 2.924706 -0.802600 -4.180091 -7.457157 -18.324320 4.172937 -0.852347 -14.491428 -10.538399 8.642916 10.980706 -60.418566 26.915792 4.839977 -133.822253 -72.509597 159.569718 22.294831 -12.991179 -35.361237 5.797951 6.033411 -5.267259 67.593068 9.749434 15.669638 -157.863155 65.585138 -134.299657 -0.352925 18.260509 -15.157099 
-2.327021 0.268541 0.949437 81.409875 -2.929691 109.175037 8.146194 -4.584537 -55.695252 -10.217991 16.249261 45.464165 2.910562 0.018258 -18.172913 0.000000 -0.000000 0.000000 -5.741254 -1.581314 0.212096 -4.609299 4.138565 53.042459 8.659792 -6.382238 16.408487 0.000000 -0.000000 0.000000 -4.811704 11.934702 25.368720 0.685913 -1.073871 -3.655737 1.674399 2.750087 -0.328786 -2.924623 -6.233509 -20.842187 3.128692 -1.663558 -12.900297 -16.526948 8.481757 7.394955 -59.403971 19.810080 7.820433 -133.961034 -79.211715 158.098008 22.006500 -11.879242 -34.098534 13.639590 4.740188 -3.044420 65.549809 5.300605 16.531697 -124.832967 74.586747 -103.490189 -2.787481 17.382057 -14.969320 
-2.218079 0.262859 0.936549 84.248975 -3.856356 108.227476 3.643142 -8.231635 -49.022610 -9.897498 12.980896 49.132540 10.529013 6.349707 -27.017592 0.000000 -0.000000 0.000000 -5.167440 -0.983833 -7.234459 -2.441526 0.901684 67.764743 6.798360 -8.053119 7.855935 0.000000 -0.000000 0.000000 -5.956467 9.731256 26.178755 1.418799 -1.179369 -4.237085 1.236501 1.849305 0.635309 -1.055349 -4.082291 -24.341715 1.461757 -2.732003 -10.014798 -22.986797 6.797657 3.818025 -55.764113 11.158121 11.968768 -113.898175 -87.432796 134.928435 21.856418 -11.308938 -30.543533 21.939831 3.000770 -2.510943 62.388748 1.831122 17.673668 -65.530425 70.754591 -49.710340 -5.521527 16.362818 -14.284354 
-2.083365 0.257016 0.925581 87.123606 -3.791282 107.024702 -1.215610 -10.764098 -37.860890 -9.221300 6.215058 50.370182 12.244265 12.306997 -35.908568 0.000000 -0.000000 0.000000 -5.703737 -0.867851 -20.797828 -0.453436 -4.284650 82.637173 6.799649 -7.419696 -2.847170 0.000000 -0.000000 0.000000 -5.772441 6.191877 28.344276 1.516808 -0.697829 -5.088895 0.584769 0.469566 0.263696 0.308335 -0.897572 -27.673253 0.098350 -4.047228 -6.831804 -28.409159 2.723979 0.931314 -52.677599 1.369748 15.756654 49.297470 -85.445023 -30.811592 21.486633 -11.548613 -26.383097 28.752579 1.815587 -1.090930 57.648389 -3.023946 16.725272 -38.673068 57.213180 -29.058618 -9.655386 16.210583 -11.315362 
-2.000174 0.253158 0.923813 88.468989 -2.598902 105.888461 -3.119870 -9.674314 -28.935619 -9.537932 0.454451 48.330733 11.249061 13.911355 -38.366900 0.000000 -0.000000 0.000000 -5.784097 -1.390166 -29.483945 -0.100679 -7.200609 87.697010 6.798687 -6.351006 -8.046352 0.000000 -0.000000 0.000000 -4.872858 3.404777 30.285760 1.261073 0.154854 -6.582832 0.852191 -0.310498 0.382701 0.057497 0.302353 -28.486912 0.302774 -4.097875 -6.227904 -27.648455 1.651403 0.123212 -55.532406 -3.171467 16.781785 111.690759 -84.589678 -91.524254 21.375247 -11.309175 -27.681554 28.715809 0.300400 -0.034075 56.187471 -7.053807 14.978263 -31.901358 55.657212 -23.322482 -11.629459 16.266400 -12.348046 
-1.884564 0.247789 0.927521 90.221366 -0.165019 104.838258 -3.076570 -5.998589 -16.246515 -9.958142 -7.429347 42.726491 8.099833 13.497835 -37.568577 0.000000 -0.000000 0.000000 -6.005469 -2.356716 -40.415280 -1.117209 -11.403108 88.516472 7.191192 -4.160081 -14.337944 0.000000 -0.000000 0.000000 -3.428267 -1.384910 31.311901 1.383356 1.213971 -8.207292 1.544529 -1.154818 1.033204 -1.138585 2.043996 -28.284812 0.726691 -3.114325 -6.622649 -24.530022 2.434375 -0.663678 -61.203741 -8.046468 18.688025 163.150649 -73.834378 -140.274520 21.794348 -10.665829 -33.899349 26.118406 -3.536330 0.993310 54.327374 -12.630127 13.241024 -26.657656 61.817398 -15.922875 -12.963757 16.627376 -14.478383 
-1.762561 0.242329 0.938756 91.661568 2.466479 104.835950 -0.168108 -3.088085 -4.685115 -10.393679 -14.120542 35.691007 2.219831 11.201269 -30.042361 0.000000 -0.000000 0.000000 -7.245586 -2.972865 -49.193030 -1.997665 -16.363386 82.159040 7.590047 -2.359871 -17.870272 0.000000 -0.000000 0.000000 -1.392891 -6.876714 29.657826 1.831501 2.181132 -7.978100 1.461161 -1.730082 1.249605 -2.393466 4.564831 -27.304179 0.610909 -1.763367 -6.963840 -22.194011 4.052182 -1.490309 -63.146537 -11.766759 21.128647 175.070873 -60.135563 -149.299499 22.095112 -11.397975 -38.629319 23.314788 -7.925074 1.979300 51.685207 -16.684910 12.176087 -21.897702 69.942270 -7.444372 -13.845870 17.104019 -16.644583 
-1.633854 0.236700 0.955167 91.568148 4.396614 104.523366 2.716516 -0.871489 5.419258 -9.259970 -17.571812 29.191002 -6.147622 8.333456 -12.669159 0.000000 -0.000000 0.000000 -8.969029 -3.135793 -53.736356 -2.380771 -20.415700 70.002704 8.217945 -0.467616 -18.021471 0.000000 -0.000000 0.000000 0.606077 -10.988077 27.366573 1.590847 2.973185 -6.391173 1.100241 -1.782618 0.726252 -3.387941 7.204870 -26.096224 0.469270 -0.911164 -6.758303 -20.722226 5.399598 -2.154129 -62.798733 -13.360792 22.766952 179.460634 -50.007066 -151.696709 21.267226 -12.707385 -39.647944 20.779584 -11.028032 3.564009 50.607675 -18.981200 9.713269 -15.164686 75.119015 0.027490 -14.228911 17.463643 -18.133885 
-1.502505 0.230022 0.968757 90.022079 5.337647 103.844369 3.481354 0.783897 13.460248 -5.924214 -18.698241 23.190446 -10.326922 7.085916 8.753836 0.000000 -0.000000 0.000000 -9.652576 -2.695235 -55.119820 -1.579606 -21.478359 54.981789 10.076206 0.624992 -13.289172 0.000000 -0.000000 0.000000 1.599329 -12.363074 25.433779 0.898993 3.150123 -4.855142 1.671019 -1.765156 -0.147282 -4.510652 7.187485 -23.582249 1.162743 1.691497 -7.606162 -19.371842 6.536246 -1.742890 -63.420606 -12.710106 23.718229 -179.308912 -46.983289 -153.647431 22.571794 -12.050653 -40.945381 18.094951 -11.955355 5.427412 52.292873 -20.179868 8.173215 -19.763713 77.473119 -5.418275 -12.926577 17.963636 -15.802665 
-1.340203 0.222287 0.973462 88.020211 5.727633 102.289448 0.066133 -0.575979 18.283738 -4.202937 -19.393941 27.072351 -6.343062 9.290149 11.887056 0.000000 -0.000000 0.000000 -9.650450 -1.684283 -53.765411 -0.234408 -19.818054 40.040036 14.259648 -1.222445 -5.820510 0.000000 -0.000000 0.000000 2.104315 -12.285844 24.507146 0.754408 3.074585 -4.206592 2.027469 -1.593749 0.165211 -5.861612 5.553270 -21.376219 0.967800 5.673216 -8.387440 -18.599002 7.848754 -0.880822 -64.502317 -10.559348 24.008044 179.509875 -52.941693 -155.852955 24.956817 -7.304675 -42.004471 17.250909 -12.053812 4.682607 53.755629 -19.517755 9.639759 -40.120292 77.683799 -26.032321 -9.759810 17.877276 -11.232431 
-1.212781 0.215163 0.967169 86.980349 6.250638 100.545683 -2.023560 -1.494391 17.178465 -6.299708 -17.620277 39.069505 -5.276604 9.791937 7.565717 0.000000 -0.000000 0.000000 -8.862002 -0.683173 -50.863638 -0.213735 -18.201609 35.145680 14.694791 -1.893441 -3.277515 0.000000 -0.000000 0.000000 3.122516 -10.979243 24.982536 1.196655 2.828634 -4.131690 1.773150 -1.666211 0.868279 -6.763320 6.288308 -21.158467 -0.928883 6.975271 -8.017950 -19.909314 7.611303 -0.610686 -63.570862 -8.345037 22.949134 176.113310 -62.428785 -155.666390 24.727314 -4.998908 -41.436958 19.560870 -11.232424 2.598983 53.198722 -16.948227 11.056137 -52.949611 75.756585 -38.849494 -8.059989 17.048888 -9.410560 
-1.088004 0.206950 0.954019 86.701174 7.009605 98.558415 -1.676468 -0.699261 12.551958 -9.777286 -15.092127 53.841358 -4.572132 7.582609 3.322387 0.000000 -0.000000 0.000000 -7.108538 -0.069727 -47.238625 0.374914 -14.469913 38.795920 6.469899 -3.550540 -7.122755 0.000000 -0.000000 0.000000 4.152005 -9.561938 26.521057 1.806916 2.862465 -4.569227 1.472865 -1.612174 1.342790 -7.583372 7.075246 -21.573839 -2.362751 7.884313 -6.733008 -21.993002 6.160275 -0.345453 -61.468686 -5.856008 20.396655 169.261920 -74.425073 -152.081427 24.080365 -3.734360 -40.942381 23.006364 -8.382986 1.067498 52.338911 -13.388791 11.553873 -57.404739 72.325831 -43.723664 -6.726508 16.172844 -8.632277 
-0.969218 0.200379 0.941468 86.492395 7.826608 96.441067 -0.004691 0.042341 4.918921 -10.707527 -9.220368 67.018195 -3.496791 6.572335 -3.231245 0.000000 -0.000000 0.000000 -5.200921 0.845717 -42.924886 -0.681892 -12.231688 48.428146 0.848162 -7.055304 -15.750492 0.000000 -0.000000 0.000000 4.787191 -7.658089 29.068473 2.317620 3.151728 -4.467795 1.241548 -0.926962 0.924644 -7.633187 8.160647 -23.123872 -3.854425 7.559730 -4.451586 -24.383518 3.516385 -0.143608 -59.105636 -3.282501 17.555508 104.266597 -85.633540 -90.748254 22.716453 -5.277503 -36.856796 26.994238 -3.208484 0.359814 50.920903 -8.998774 12.129703 -57.041782 67.048271 -44.727719 -6.058881 15.677041 -7.037173 
